<mxfile host="app.diagrams.net" modified="2023-07-28T21:59:29.106Z" agent="Mozilla/5.0 (Windows NT 10.0; Win64; x64) AppleWebKit/537.36 (KHTML, like Gecko) Chrome/115.0.0.0 Safari/537.36" etag="L3-EwI2CwKEHntbKY3Cy" version="21.6.5" type="device">
  <diagram id="C5RBs43oDa-KdzZeNtuy" name="Page-1">
    <mxGraphModel dx="1500" dy="820" grid="1" gridSize="10" guides="1" tooltips="1" connect="1" arrows="1" fold="1" page="1" pageScale="1" pageWidth="827" pageHeight="1169" math="0" shadow="0">
      <root>
        <mxCell id="WIyWlLk6GJQsqaUBKTNV-0" />
        <mxCell id="WIyWlLk6GJQsqaUBKTNV-1" parent="WIyWlLk6GJQsqaUBKTNV-0" />
        <mxCell id="D_m6g35PgsfcEyeFwmXf-0" value="Start" style="strokeWidth=2;html=1;shape=mxgraph.flowchart.start_1;whiteSpace=wrap;" parent="WIyWlLk6GJQsqaUBKTNV-1" vertex="1">
          <mxGeometry x="570" y="40" width="100" height="40" as="geometry" />
        </mxCell>
        <mxCell id="sTyI92ecXvvVHSGkS3OP-0" value="" style="endArrow=classic;html=1;rounded=0;exitX=0.5;exitY=1;exitDx=0;exitDy=0;exitPerimeter=0;entryX=0.5;entryY=0;entryDx=0;entryDy=0;" edge="1" parent="WIyWlLk6GJQsqaUBKTNV-1" source="D_m6g35PgsfcEyeFwmXf-0" target="sTyI92ecXvvVHSGkS3OP-1">
          <mxGeometry width="50" height="50" relative="1" as="geometry">
            <mxPoint x="720" y="200" as="sourcePoint" />
            <mxPoint x="770" y="150" as="targetPoint" />
          </mxGeometry>
        </mxCell>
        <mxCell id="sTyI92ecXvvVHSGkS3OP-1" value="input:&lt;br&gt;array" style="shape=parallelogram;html=1;strokeWidth=2;perimeter=parallelogramPerimeter;whiteSpace=wrap;rounded=1;arcSize=12;size=0.23;" vertex="1" parent="WIyWlLk6GJQsqaUBKTNV-1">
          <mxGeometry x="570" y="110" width="100" height="40" as="geometry" />
        </mxCell>
        <mxCell id="sTyI92ecXvvVHSGkS3OP-2" value="i = 0; algoritms; 1" style="shape=hexagon;perimeter=hexagonPerimeter2;whiteSpace=wrap;html=1;fixedSize=1;" vertex="1" parent="WIyWlLk6GJQsqaUBKTNV-1">
          <mxGeometry x="540" y="190" width="160" height="40" as="geometry" />
        </mxCell>
        <mxCell id="sTyI92ecXvvVHSGkS3OP-3" value="algoritms[i].sort(array)&lt;br&gt;results.push(name, time)" style="rounded=1;whiteSpace=wrap;html=1;absoluteArcSize=1;arcSize=14;strokeWidth=2;fillColor=#ffe6cc;strokeColor=#d79b00;" vertex="1" parent="WIyWlLk6GJQsqaUBKTNV-1">
          <mxGeometry x="550" y="270" width="140" height="40" as="geometry" />
        </mxCell>
        <mxCell id="sTyI92ecXvvVHSGkS3OP-4" value="" style="endArrow=classic;html=1;rounded=0;exitX=0.5;exitY=1;exitDx=0;exitDy=0;entryX=0.5;entryY=0;entryDx=0;entryDy=0;" edge="1" parent="WIyWlLk6GJQsqaUBKTNV-1" source="sTyI92ecXvvVHSGkS3OP-1" target="sTyI92ecXvvVHSGkS3OP-2">
          <mxGeometry width="50" height="50" relative="1" as="geometry">
            <mxPoint x="420" y="180" as="sourcePoint" />
            <mxPoint x="550" y="160" as="targetPoint" />
          </mxGeometry>
        </mxCell>
        <mxCell id="sTyI92ecXvvVHSGkS3OP-5" value="" style="endArrow=classic;html=1;rounded=0;exitX=0.5;exitY=1;exitDx=0;exitDy=0;entryX=0.5;entryY=0;entryDx=0;entryDy=0;" edge="1" parent="WIyWlLk6GJQsqaUBKTNV-1" source="sTyI92ecXvvVHSGkS3OP-2" target="sTyI92ecXvvVHSGkS3OP-3">
          <mxGeometry width="50" height="50" relative="1" as="geometry">
            <mxPoint x="370" y="230" as="sourcePoint" />
            <mxPoint x="420" y="180" as="targetPoint" />
          </mxGeometry>
        </mxCell>
        <mxCell id="sTyI92ecXvvVHSGkS3OP-6" value="" style="endArrow=classic;html=1;rounded=0;exitX=0;exitY=0.5;exitDx=0;exitDy=0;entryX=0;entryY=0.5;entryDx=0;entryDy=0;" edge="1" parent="WIyWlLk6GJQsqaUBKTNV-1" source="sTyI92ecXvvVHSGkS3OP-3" target="sTyI92ecXvvVHSGkS3OP-2">
          <mxGeometry width="50" height="50" relative="1" as="geometry">
            <mxPoint x="390" y="270" as="sourcePoint" />
            <mxPoint x="440" y="220" as="targetPoint" />
            <Array as="points">
              <mxPoint x="520" y="290" />
              <mxPoint x="520" y="210" />
            </Array>
          </mxGeometry>
        </mxCell>
        <mxCell id="sTyI92ecXvvVHSGkS3OP-7" value="" style="endArrow=classic;html=1;rounded=0;exitX=1;exitY=0.5;exitDx=0;exitDy=0;entryX=0.5;entryY=0;entryDx=0;entryDy=0;" edge="1" parent="WIyWlLk6GJQsqaUBKTNV-1" source="sTyI92ecXvvVHSGkS3OP-2" target="sTyI92ecXvvVHSGkS3OP-8">
          <mxGeometry width="50" height="50" relative="1" as="geometry">
            <mxPoint x="790" y="240" as="sourcePoint" />
            <mxPoint x="600" y="340" as="targetPoint" />
            <Array as="points">
              <mxPoint x="730" y="210" />
              <mxPoint x="730" y="330" />
              <mxPoint x="620" y="330" />
            </Array>
          </mxGeometry>
        </mxCell>
        <mxCell id="sTyI92ecXvvVHSGkS3OP-8" value="output:&lt;br&gt;results" style="shape=parallelogram;html=1;strokeWidth=2;perimeter=parallelogramPerimeter;whiteSpace=wrap;rounded=1;arcSize=12;size=0.23;" vertex="1" parent="WIyWlLk6GJQsqaUBKTNV-1">
          <mxGeometry x="570" y="360" width="100" height="40" as="geometry" />
        </mxCell>
        <mxCell id="sTyI92ecXvvVHSGkS3OP-9" value="End" style="strokeWidth=2;html=1;shape=mxgraph.flowchart.start_1;whiteSpace=wrap;" vertex="1" parent="WIyWlLk6GJQsqaUBKTNV-1">
          <mxGeometry x="570" y="440" width="100" height="40" as="geometry" />
        </mxCell>
        <mxCell id="sTyI92ecXvvVHSGkS3OP-10" value="" style="endArrow=classic;html=1;rounded=0;exitX=0.5;exitY=1;exitDx=0;exitDy=0;entryX=0.5;entryY=0;entryDx=0;entryDy=0;entryPerimeter=0;" edge="1" parent="WIyWlLk6GJQsqaUBKTNV-1" source="sTyI92ecXvvVHSGkS3OP-8" target="sTyI92ecXvvVHSGkS3OP-9">
          <mxGeometry width="50" height="50" relative="1" as="geometry">
            <mxPoint x="410" y="280" as="sourcePoint" />
            <mxPoint x="460" y="230" as="targetPoint" />
          </mxGeometry>
        </mxCell>
        <mxCell id="sTyI92ecXvvVHSGkS3OP-11" value="Start" style="strokeWidth=2;html=1;shape=mxgraph.flowchart.start_1;whiteSpace=wrap;fillColor=#d5e8d4;strokeColor=#82b366;" vertex="1" parent="WIyWlLk6GJQsqaUBKTNV-1">
          <mxGeometry x="960" y="100" width="100" height="40" as="geometry" />
        </mxCell>
        <mxCell id="sTyI92ecXvvVHSGkS3OP-12" value="Bubble Sort" style="text;html=1;align=center;verticalAlign=middle;resizable=0;points=[];autosize=1;strokeColor=#d79b00;fillColor=#ffe6cc;" vertex="1" parent="WIyWlLk6GJQsqaUBKTNV-1">
          <mxGeometry x="965" y="30" width="90" height="30" as="geometry" />
        </mxCell>
        <mxCell id="sTyI92ecXvvVHSGkS3OP-13" value="" style="endArrow=classic;html=1;rounded=0;exitX=0.5;exitY=1;exitDx=0;exitDy=0;exitPerimeter=0;entryX=0.5;entryY=0;entryDx=0;entryDy=0;fillColor=#d5e8d4;strokeColor=#82b366;" edge="1" parent="WIyWlLk6GJQsqaUBKTNV-1" source="sTyI92ecXvvVHSGkS3OP-11" target="sTyI92ecXvvVHSGkS3OP-14">
          <mxGeometry width="50" height="50" relative="1" as="geometry">
            <mxPoint x="1000" y="240" as="sourcePoint" />
            <mxPoint x="1010" y="170" as="targetPoint" />
          </mxGeometry>
        </mxCell>
        <mxCell id="sTyI92ecXvvVHSGkS3OP-14" value="i = 0; array.length - 1; 1" style="shape=hexagon;perimeter=hexagonPerimeter2;whiteSpace=wrap;html=1;fixedSize=1;fillColor=#d5e8d4;strokeColor=#82b366;" vertex="1" parent="WIyWlLk6GJQsqaUBKTNV-1">
          <mxGeometry x="940" y="170" width="140" height="40" as="geometry" />
        </mxCell>
        <mxCell id="sTyI92ecXvvVHSGkS3OP-15" value="j = 0; array.length - 1 - i; 1" style="shape=hexagon;perimeter=hexagonPerimeter2;whiteSpace=wrap;html=1;fixedSize=1;fillColor=#d5e8d4;strokeColor=#82b366;" vertex="1" parent="WIyWlLk6GJQsqaUBKTNV-1">
          <mxGeometry x="920" y="240" width="180" height="40" as="geometry" />
        </mxCell>
        <mxCell id="sTyI92ecXvvVHSGkS3OP-16" value="array[j] &amp;gt; array[j + 1]" style="strokeWidth=2;html=1;shape=mxgraph.flowchart.decision;whiteSpace=wrap;fillColor=#d5e8d4;strokeColor=#82b366;" vertex="1" parent="WIyWlLk6GJQsqaUBKTNV-1">
          <mxGeometry x="935" y="310" width="150" height="60" as="geometry" />
        </mxCell>
        <mxCell id="sTyI92ecXvvVHSGkS3OP-17" value="" style="endArrow=classic;html=1;rounded=0;exitX=0.5;exitY=1;exitDx=0;exitDy=0;entryX=0.5;entryY=0;entryDx=0;entryDy=0;fillColor=#d5e8d4;strokeColor=#82b366;" edge="1" parent="WIyWlLk6GJQsqaUBKTNV-1" source="sTyI92ecXvvVHSGkS3OP-14" target="sTyI92ecXvvVHSGkS3OP-15">
          <mxGeometry width="50" height="50" relative="1" as="geometry">
            <mxPoint x="870" y="160" as="sourcePoint" />
            <mxPoint x="920" y="110" as="targetPoint" />
          </mxGeometry>
        </mxCell>
        <mxCell id="sTyI92ecXvvVHSGkS3OP-18" value="" style="endArrow=classic;html=1;rounded=0;exitX=0.5;exitY=1;exitDx=0;exitDy=0;entryX=0.5;entryY=0;entryDx=0;entryDy=0;entryPerimeter=0;fillColor=#d5e8d4;strokeColor=#82b366;" edge="1" parent="WIyWlLk6GJQsqaUBKTNV-1" source="sTyI92ecXvvVHSGkS3OP-15" target="sTyI92ecXvvVHSGkS3OP-16">
          <mxGeometry width="50" height="50" relative="1" as="geometry">
            <mxPoint x="1170" y="390" as="sourcePoint" />
            <mxPoint x="1220" y="340" as="targetPoint" />
          </mxGeometry>
        </mxCell>
        <mxCell id="sTyI92ecXvvVHSGkS3OP-19" value="" style="endArrow=classic;html=1;rounded=0;exitX=0;exitY=0.5;exitDx=0;exitDy=0;exitPerimeter=0;entryX=0;entryY=0.5;entryDx=0;entryDy=0;fillColor=#d5e8d4;strokeColor=#82b366;" edge="1" parent="WIyWlLk6GJQsqaUBKTNV-1" source="sTyI92ecXvvVHSGkS3OP-16" target="sTyI92ecXvvVHSGkS3OP-15">
          <mxGeometry width="50" height="50" relative="1" as="geometry">
            <mxPoint x="830" y="350" as="sourcePoint" />
            <mxPoint x="880" y="300" as="targetPoint" />
            <Array as="points">
              <mxPoint x="900" y="340" />
              <mxPoint x="900" y="260" />
            </Array>
          </mxGeometry>
        </mxCell>
        <mxCell id="sTyI92ecXvvVHSGkS3OP-20" value="no" style="edgeLabel;html=1;align=center;verticalAlign=middle;resizable=0;points=[];" vertex="1" connectable="0" parent="sTyI92ecXvvVHSGkS3OP-19">
          <mxGeometry x="-0.6978" y="-1" relative="1" as="geometry">
            <mxPoint as="offset" />
          </mxGeometry>
        </mxCell>
        <mxCell id="sTyI92ecXvvVHSGkS3OP-21" value="elements swap" style="rounded=1;whiteSpace=wrap;html=1;absoluteArcSize=1;arcSize=14;strokeWidth=2;fillColor=#d5e8d4;strokeColor=#82b366;" vertex="1" parent="WIyWlLk6GJQsqaUBKTNV-1">
          <mxGeometry x="960" y="400" width="100" height="40" as="geometry" />
        </mxCell>
        <mxCell id="sTyI92ecXvvVHSGkS3OP-22" value="" style="endArrow=classic;html=1;rounded=0;exitX=0.5;exitY=1;exitDx=0;exitDy=0;exitPerimeter=0;entryX=0.5;entryY=0;entryDx=0;entryDy=0;fillColor=#d5e8d4;strokeColor=#82b366;" edge="1" parent="WIyWlLk6GJQsqaUBKTNV-1" source="sTyI92ecXvvVHSGkS3OP-16" target="sTyI92ecXvvVHSGkS3OP-21">
          <mxGeometry width="50" height="50" relative="1" as="geometry">
            <mxPoint x="1190" y="370" as="sourcePoint" />
            <mxPoint x="1240" y="320" as="targetPoint" />
          </mxGeometry>
        </mxCell>
        <mxCell id="sTyI92ecXvvVHSGkS3OP-23" value="yes" style="edgeLabel;html=1;align=center;verticalAlign=middle;resizable=0;points=[];" vertex="1" connectable="0" parent="sTyI92ecXvvVHSGkS3OP-22">
          <mxGeometry x="-0.28" y="1" relative="1" as="geometry">
            <mxPoint as="offset" />
          </mxGeometry>
        </mxCell>
        <mxCell id="sTyI92ecXvvVHSGkS3OP-24" value="" style="endArrow=classic;html=1;rounded=0;exitX=0;exitY=0.5;exitDx=0;exitDy=0;fillColor=#d5e8d4;strokeColor=#82b366;" edge="1" parent="WIyWlLk6GJQsqaUBKTNV-1" source="sTyI92ecXvvVHSGkS3OP-21">
          <mxGeometry width="50" height="50" relative="1" as="geometry">
            <mxPoint x="800" y="420" as="sourcePoint" />
            <mxPoint x="900" y="340" as="targetPoint" />
            <Array as="points">
              <mxPoint x="900" y="420" />
            </Array>
          </mxGeometry>
        </mxCell>
        <mxCell id="sTyI92ecXvvVHSGkS3OP-25" value="" style="endArrow=classic;html=1;rounded=0;exitX=1;exitY=0.5;exitDx=0;exitDy=0;entryX=0;entryY=0.5;entryDx=0;entryDy=0;fillColor=#d5e8d4;strokeColor=#82b366;" edge="1" parent="WIyWlLk6GJQsqaUBKTNV-1" source="sTyI92ecXvvVHSGkS3OP-15" target="sTyI92ecXvvVHSGkS3OP-14">
          <mxGeometry width="50" height="50" relative="1" as="geometry">
            <mxPoint x="1180" y="360" as="sourcePoint" />
            <mxPoint x="1190" y="380" as="targetPoint" />
            <Array as="points">
              <mxPoint x="1130" y="260" />
              <mxPoint x="1130" y="460" />
              <mxPoint x="870" y="460" />
              <mxPoint x="870" y="190" />
            </Array>
          </mxGeometry>
        </mxCell>
        <mxCell id="sTyI92ecXvvVHSGkS3OP-26" value="" style="endArrow=classic;html=1;rounded=0;exitX=1;exitY=0.5;exitDx=0;exitDy=0;entryX=0.5;entryY=0;entryDx=0;entryDy=0;entryPerimeter=0;fillColor=#d5e8d4;strokeColor=#82b366;" edge="1" parent="WIyWlLk6GJQsqaUBKTNV-1" source="sTyI92ecXvvVHSGkS3OP-14" target="sTyI92ecXvvVHSGkS3OP-27">
          <mxGeometry width="50" height="50" relative="1" as="geometry">
            <mxPoint x="1220" y="230" as="sourcePoint" />
            <mxPoint x="1010" y="500" as="targetPoint" />
            <Array as="points">
              <mxPoint x="1160" y="190" />
              <mxPoint x="1160" y="480" />
              <mxPoint x="1010" y="480" />
            </Array>
          </mxGeometry>
        </mxCell>
        <mxCell id="sTyI92ecXvvVHSGkS3OP-27" value="End" style="strokeWidth=2;html=1;shape=mxgraph.flowchart.start_1;whiteSpace=wrap;fillColor=#d5e8d4;strokeColor=#82b366;" vertex="1" parent="WIyWlLk6GJQsqaUBKTNV-1">
          <mxGeometry x="960" y="500" width="100" height="40" as="geometry" />
        </mxCell>
        <mxCell id="sTyI92ecXvvVHSGkS3OP-28" value="Insertion Sort" style="text;html=1;align=center;verticalAlign=middle;resizable=0;points=[];autosize=1;strokeColor=#d79b00;fillColor=#ffe6cc;" vertex="1" parent="WIyWlLk6GJQsqaUBKTNV-1">
          <mxGeometry x="1375" y="30" width="90" height="30" as="geometry" />
        </mxCell>
        <mxCell id="sTyI92ecXvvVHSGkS3OP-30" value="Start" style="strokeWidth=2;html=1;shape=mxgraph.flowchart.start_1;whiteSpace=wrap;fillColor=#dae8fc;strokeColor=#6c8ebf;" vertex="1" parent="WIyWlLk6GJQsqaUBKTNV-1">
          <mxGeometry x="1370" y="90" width="100" height="40" as="geometry" />
        </mxCell>
        <mxCell id="sTyI92ecXvvVHSGkS3OP-31" value="" style="endArrow=classic;html=1;rounded=0;exitX=0.5;exitY=1;exitDx=0;exitDy=0;exitPerimeter=0;entryX=0.5;entryY=0;entryDx=0;entryDy=0;fillColor=#dae8fc;strokeColor=#6c8ebf;" edge="1" parent="WIyWlLk6GJQsqaUBKTNV-1" source="sTyI92ecXvvVHSGkS3OP-30" target="sTyI92ecXvvVHSGkS3OP-32">
          <mxGeometry width="50" height="50" relative="1" as="geometry">
            <mxPoint x="1410" y="230" as="sourcePoint" />
            <mxPoint x="1420" y="160" as="targetPoint" />
          </mxGeometry>
        </mxCell>
        <mxCell id="sTyI92ecXvvVHSGkS3OP-32" value="i = 1; array.length; 1" style="shape=hexagon;perimeter=hexagonPerimeter2;whiteSpace=wrap;html=1;fixedSize=1;fillColor=#dae8fc;strokeColor=#6c8ebf;" vertex="1" parent="WIyWlLk6GJQsqaUBKTNV-1">
          <mxGeometry x="1350" y="160" width="140" height="40" as="geometry" />
        </mxCell>
        <mxCell id="sTyI92ecXvvVHSGkS3OP-33" value="j = i; 0; -1" style="shape=hexagon;perimeter=hexagonPerimeter2;whiteSpace=wrap;html=1;fixedSize=1;fillColor=#dae8fc;strokeColor=#6c8ebf;" vertex="1" parent="WIyWlLk6GJQsqaUBKTNV-1">
          <mxGeometry x="1375" y="230" width="90" height="40" as="geometry" />
        </mxCell>
        <mxCell id="sTyI92ecXvvVHSGkS3OP-34" value="array[j] &amp;lt; array[j - 1]" style="strokeWidth=2;html=1;shape=mxgraph.flowchart.decision;whiteSpace=wrap;fillColor=#dae8fc;strokeColor=#6c8ebf;" vertex="1" parent="WIyWlLk6GJQsqaUBKTNV-1">
          <mxGeometry x="1345" y="300" width="150" height="60" as="geometry" />
        </mxCell>
        <mxCell id="sTyI92ecXvvVHSGkS3OP-35" value="" style="endArrow=classic;html=1;rounded=0;exitX=0.5;exitY=1;exitDx=0;exitDy=0;entryX=0.5;entryY=0;entryDx=0;entryDy=0;fillColor=#dae8fc;strokeColor=#6c8ebf;" edge="1" parent="WIyWlLk6GJQsqaUBKTNV-1" source="sTyI92ecXvvVHSGkS3OP-32" target="sTyI92ecXvvVHSGkS3OP-33">
          <mxGeometry width="50" height="50" relative="1" as="geometry">
            <mxPoint x="1280" y="150" as="sourcePoint" />
            <mxPoint x="1330" y="100" as="targetPoint" />
          </mxGeometry>
        </mxCell>
        <mxCell id="sTyI92ecXvvVHSGkS3OP-36" value="" style="endArrow=classic;html=1;rounded=0;exitX=0.5;exitY=1;exitDx=0;exitDy=0;entryX=0.5;entryY=0;entryDx=0;entryDy=0;entryPerimeter=0;fillColor=#dae8fc;strokeColor=#6c8ebf;" edge="1" parent="WIyWlLk6GJQsqaUBKTNV-1" source="sTyI92ecXvvVHSGkS3OP-33" target="sTyI92ecXvvVHSGkS3OP-34">
          <mxGeometry width="50" height="50" relative="1" as="geometry">
            <mxPoint x="1580" y="380" as="sourcePoint" />
            <mxPoint x="1630" y="330" as="targetPoint" />
          </mxGeometry>
        </mxCell>
        <mxCell id="sTyI92ecXvvVHSGkS3OP-39" value="elements swap" style="rounded=1;whiteSpace=wrap;html=1;absoluteArcSize=1;arcSize=14;strokeWidth=2;fillColor=#dae8fc;strokeColor=#6c8ebf;" vertex="1" parent="WIyWlLk6GJQsqaUBKTNV-1">
          <mxGeometry x="1370" y="390" width="100" height="40" as="geometry" />
        </mxCell>
        <mxCell id="sTyI92ecXvvVHSGkS3OP-40" value="" style="endArrow=classic;html=1;rounded=0;exitX=0.5;exitY=1;exitDx=0;exitDy=0;exitPerimeter=0;entryX=0.5;entryY=0;entryDx=0;entryDy=0;fillColor=#dae8fc;strokeColor=#6c8ebf;" edge="1" parent="WIyWlLk6GJQsqaUBKTNV-1" source="sTyI92ecXvvVHSGkS3OP-34" target="sTyI92ecXvvVHSGkS3OP-39">
          <mxGeometry width="50" height="50" relative="1" as="geometry">
            <mxPoint x="1600" y="360" as="sourcePoint" />
            <mxPoint x="1650" y="310" as="targetPoint" />
          </mxGeometry>
        </mxCell>
        <mxCell id="sTyI92ecXvvVHSGkS3OP-41" value="yes" style="edgeLabel;html=1;align=center;verticalAlign=middle;resizable=0;points=[];" vertex="1" connectable="0" parent="sTyI92ecXvvVHSGkS3OP-40">
          <mxGeometry x="-0.28" y="1" relative="1" as="geometry">
            <mxPoint as="offset" />
          </mxGeometry>
        </mxCell>
        <mxCell id="sTyI92ecXvvVHSGkS3OP-42" value="" style="endArrow=classic;html=1;rounded=0;exitX=0;exitY=0.5;exitDx=0;exitDy=0;fillColor=#dae8fc;strokeColor=#6c8ebf;entryX=0;entryY=0.5;entryDx=0;entryDy=0;" edge="1" parent="WIyWlLk6GJQsqaUBKTNV-1" source="sTyI92ecXvvVHSGkS3OP-39" target="sTyI92ecXvvVHSGkS3OP-33">
          <mxGeometry width="50" height="50" relative="1" as="geometry">
            <mxPoint x="1210" y="410" as="sourcePoint" />
            <mxPoint x="1310" y="330" as="targetPoint" />
            <Array as="points">
              <mxPoint x="1310" y="410" />
              <mxPoint x="1310" y="250" />
            </Array>
          </mxGeometry>
        </mxCell>
        <mxCell id="sTyI92ecXvvVHSGkS3OP-43" value="" style="endArrow=classic;html=1;rounded=0;exitX=1;exitY=0.5;exitDx=0;exitDy=0;entryX=0;entryY=0.5;entryDx=0;entryDy=0;fillColor=#dae8fc;strokeColor=#6c8ebf;" edge="1" parent="WIyWlLk6GJQsqaUBKTNV-1" source="sTyI92ecXvvVHSGkS3OP-33" target="sTyI92ecXvvVHSGkS3OP-32">
          <mxGeometry width="50" height="50" relative="1" as="geometry">
            <mxPoint x="1590" y="350" as="sourcePoint" />
            <mxPoint x="1600" y="370" as="targetPoint" />
            <Array as="points">
              <mxPoint x="1540" y="250" />
              <mxPoint x="1540" y="450" />
              <mxPoint x="1280" y="450" />
              <mxPoint x="1280" y="180" />
            </Array>
          </mxGeometry>
        </mxCell>
        <mxCell id="sTyI92ecXvvVHSGkS3OP-44" value="" style="endArrow=classic;html=1;rounded=0;exitX=1;exitY=0.5;exitDx=0;exitDy=0;entryX=0.5;entryY=0;entryDx=0;entryDy=0;entryPerimeter=0;fillColor=#dae8fc;strokeColor=#6c8ebf;" edge="1" parent="WIyWlLk6GJQsqaUBKTNV-1" source="sTyI92ecXvvVHSGkS3OP-32" target="sTyI92ecXvvVHSGkS3OP-45">
          <mxGeometry width="50" height="50" relative="1" as="geometry">
            <mxPoint x="1630" y="220" as="sourcePoint" />
            <mxPoint x="1420" y="490" as="targetPoint" />
            <Array as="points">
              <mxPoint x="1570" y="180" />
              <mxPoint x="1570" y="470" />
              <mxPoint x="1420" y="470" />
            </Array>
          </mxGeometry>
        </mxCell>
        <mxCell id="sTyI92ecXvvVHSGkS3OP-45" value="End" style="strokeWidth=2;html=1;shape=mxgraph.flowchart.start_1;whiteSpace=wrap;fillColor=#dae8fc;strokeColor=#6c8ebf;" vertex="1" parent="WIyWlLk6GJQsqaUBKTNV-1">
          <mxGeometry x="1370" y="490" width="100" height="40" as="geometry" />
        </mxCell>
        <mxCell id="sTyI92ecXvvVHSGkS3OP-47" value="" style="endArrow=classic;html=1;rounded=0;exitX=1;exitY=0.5;exitDx=0;exitDy=0;exitPerimeter=0;fillColor=#dae8fc;strokeColor=#6c8ebf;" edge="1" parent="WIyWlLk6GJQsqaUBKTNV-1" source="sTyI92ecXvvVHSGkS3OP-34">
          <mxGeometry width="50" height="50" relative="1" as="geometry">
            <mxPoint x="1200" y="390" as="sourcePoint" />
            <mxPoint x="1540" y="330" as="targetPoint" />
          </mxGeometry>
        </mxCell>
        <mxCell id="sTyI92ecXvvVHSGkS3OP-48" value="no" style="edgeLabel;html=1;align=center;verticalAlign=middle;resizable=0;points=[];" vertex="1" connectable="0" parent="sTyI92ecXvvVHSGkS3OP-47">
          <mxGeometry x="-0.2343" y="2" relative="1" as="geometry">
            <mxPoint as="offset" />
          </mxGeometry>
        </mxCell>
        <mxCell id="sTyI92ecXvvVHSGkS3OP-49" value="Start" style="strokeWidth=2;html=1;shape=mxgraph.flowchart.start_1;whiteSpace=wrap;fillColor=#f8cecc;strokeColor=#b85450;" vertex="1" parent="WIyWlLk6GJQsqaUBKTNV-1">
          <mxGeometry x="1186" y="650" width="100" height="40" as="geometry" />
        </mxCell>
        <mxCell id="sTyI92ecXvvVHSGkS3OP-50" value="Selection Sort" style="text;html=1;align=center;verticalAlign=middle;resizable=0;points=[];autosize=1;strokeColor=#d79b00;fillColor=#ffe6cc;" vertex="1" parent="WIyWlLk6GJQsqaUBKTNV-1">
          <mxGeometry x="1186" y="580" width="100" height="30" as="geometry" />
        </mxCell>
        <mxCell id="sTyI92ecXvvVHSGkS3OP-51" value="" style="endArrow=classic;html=1;rounded=0;exitX=0.5;exitY=1;exitDx=0;exitDy=0;exitPerimeter=0;entryX=0.5;entryY=0;entryDx=0;entryDy=0;fillColor=#f8cecc;strokeColor=#b85450;" edge="1" parent="WIyWlLk6GJQsqaUBKTNV-1" source="sTyI92ecXvvVHSGkS3OP-49" target="sTyI92ecXvvVHSGkS3OP-52">
          <mxGeometry width="50" height="50" relative="1" as="geometry">
            <mxPoint x="1226" y="790" as="sourcePoint" />
            <mxPoint x="1236" y="720" as="targetPoint" />
          </mxGeometry>
        </mxCell>
        <mxCell id="sTyI92ecXvvVHSGkS3OP-52" value="i = 0; array.length - 1; 1" style="shape=hexagon;perimeter=hexagonPerimeter2;whiteSpace=wrap;html=1;fixedSize=1;fillColor=#f8cecc;strokeColor=#b85450;" vertex="1" parent="WIyWlLk6GJQsqaUBKTNV-1">
          <mxGeometry x="1166" y="720" width="140" height="40" as="geometry" />
        </mxCell>
        <mxCell id="sTyI92ecXvvVHSGkS3OP-53" value="j = i; array.length; 1" style="shape=hexagon;perimeter=hexagonPerimeter2;whiteSpace=wrap;html=1;fixedSize=1;fillColor=#f8cecc;strokeColor=#b85450;" vertex="1" parent="WIyWlLk6GJQsqaUBKTNV-1">
          <mxGeometry x="1168" y="790" width="136" height="40" as="geometry" />
        </mxCell>
        <mxCell id="sTyI92ecXvvVHSGkS3OP-55" value="" style="endArrow=classic;html=1;rounded=0;exitX=0.5;exitY=1;exitDx=0;exitDy=0;entryX=0.5;entryY=0;entryDx=0;entryDy=0;fillColor=#f8cecc;strokeColor=#b85450;" edge="1" parent="WIyWlLk6GJQsqaUBKTNV-1" source="sTyI92ecXvvVHSGkS3OP-52" target="sTyI92ecXvvVHSGkS3OP-53">
          <mxGeometry width="50" height="50" relative="1" as="geometry">
            <mxPoint x="1096" y="710" as="sourcePoint" />
            <mxPoint x="1146" y="660" as="targetPoint" />
          </mxGeometry>
        </mxCell>
        <mxCell id="sTyI92ecXvvVHSGkS3OP-56" value="" style="endArrow=classic;html=1;rounded=0;exitX=0.5;exitY=1;exitDx=0;exitDy=0;entryX=0.5;entryY=0;entryDx=0;entryDy=0;entryPerimeter=0;fillColor=#f8cecc;strokeColor=#b85450;" edge="1" parent="WIyWlLk6GJQsqaUBKTNV-1" source="sTyI92ecXvvVHSGkS3OP-53">
          <mxGeometry width="50" height="50" relative="1" as="geometry">
            <mxPoint x="1396" y="940" as="sourcePoint" />
            <mxPoint x="1236" y="860" as="targetPoint" />
          </mxGeometry>
        </mxCell>
        <mxCell id="sTyI92ecXvvVHSGkS3OP-64" value="" style="endArrow=classic;html=1;rounded=0;exitX=1;exitY=0.5;exitDx=0;exitDy=0;entryX=0.5;entryY=0;entryDx=0;entryDy=0;entryPerimeter=0;fillColor=#f8cecc;strokeColor=#b85450;" edge="1" parent="WIyWlLk6GJQsqaUBKTNV-1" source="sTyI92ecXvvVHSGkS3OP-52" target="sTyI92ecXvvVHSGkS3OP-65">
          <mxGeometry width="50" height="50" relative="1" as="geometry">
            <mxPoint x="1446" y="780" as="sourcePoint" />
            <mxPoint x="1236" y="1050" as="targetPoint" />
            <Array as="points">
              <mxPoint x="1350" y="740" />
              <mxPoint x="1350" y="1000" />
              <mxPoint x="1236" y="1000" />
            </Array>
          </mxGeometry>
        </mxCell>
        <mxCell id="sTyI92ecXvvVHSGkS3OP-65" value="End" style="strokeWidth=2;html=1;shape=mxgraph.flowchart.start_1;whiteSpace=wrap;fillColor=#f8cecc;strokeColor=#b85450;" vertex="1" parent="WIyWlLk6GJQsqaUBKTNV-1">
          <mxGeometry x="1186" y="1020" width="100" height="40" as="geometry" />
        </mxCell>
        <mxCell id="sTyI92ecXvvVHSGkS3OP-66" value="search min" style="rounded=1;whiteSpace=wrap;html=1;absoluteArcSize=1;arcSize=14;strokeWidth=2;fillColor=#f8cecc;strokeColor=#b85450;" vertex="1" parent="WIyWlLk6GJQsqaUBKTNV-1">
          <mxGeometry x="1186" y="860" width="100" height="40" as="geometry" />
        </mxCell>
        <mxCell id="sTyI92ecXvvVHSGkS3OP-68" value="" style="endArrow=classic;html=1;rounded=0;exitX=0;exitY=0.5;exitDx=0;exitDy=0;entryX=0;entryY=0.5;entryDx=0;entryDy=0;fillColor=#f8cecc;strokeColor=#b85450;" edge="1" parent="WIyWlLk6GJQsqaUBKTNV-1" source="sTyI92ecXvvVHSGkS3OP-66" target="sTyI92ecXvvVHSGkS3OP-53">
          <mxGeometry width="50" height="50" relative="1" as="geometry">
            <mxPoint x="1100" y="910" as="sourcePoint" />
            <mxPoint x="1150" y="860" as="targetPoint" />
            <Array as="points">
              <mxPoint x="1140" y="880" />
              <mxPoint x="1140" y="810" />
            </Array>
          </mxGeometry>
        </mxCell>
        <mxCell id="sTyI92ecXvvVHSGkS3OP-69" value="" style="endArrow=classic;html=1;rounded=0;exitX=1;exitY=0.5;exitDx=0;exitDy=0;fillColor=#f8cecc;strokeColor=#b85450;" edge="1" parent="WIyWlLk6GJQsqaUBKTNV-1" source="sTyI92ecXvvVHSGkS3OP-53">
          <mxGeometry width="50" height="50" relative="1" as="geometry">
            <mxPoint x="1100" y="930" as="sourcePoint" />
            <mxPoint x="1236" y="940" as="targetPoint" />
            <Array as="points">
              <mxPoint x="1330" y="810" />
              <mxPoint x="1330" y="920" />
              <mxPoint x="1236" y="920" />
            </Array>
          </mxGeometry>
        </mxCell>
        <mxCell id="sTyI92ecXvvVHSGkS3OP-70" value="array[i] = min" style="rounded=1;whiteSpace=wrap;html=1;absoluteArcSize=1;arcSize=14;strokeWidth=2;fillColor=#f8cecc;strokeColor=#b85450;" vertex="1" parent="WIyWlLk6GJQsqaUBKTNV-1">
          <mxGeometry x="1186" y="940" width="100" height="40" as="geometry" />
        </mxCell>
        <mxCell id="sTyI92ecXvvVHSGkS3OP-71" value="" style="endArrow=classic;html=1;rounded=0;exitX=0;exitY=0.5;exitDx=0;exitDy=0;entryX=0;entryY=0.5;entryDx=0;entryDy=0;fillColor=#f8cecc;strokeColor=#b85450;" edge="1" parent="WIyWlLk6GJQsqaUBKTNV-1" source="sTyI92ecXvvVHSGkS3OP-70" target="sTyI92ecXvvVHSGkS3OP-52">
          <mxGeometry width="50" height="50" relative="1" as="geometry">
            <mxPoint x="1020" y="830" as="sourcePoint" />
            <mxPoint x="1070" y="780" as="targetPoint" />
            <Array as="points">
              <mxPoint x="1120" y="960" />
              <mxPoint x="1120" y="740" />
            </Array>
          </mxGeometry>
        </mxCell>
      </root>
    </mxGraphModel>
  </diagram>
</mxfile>
